<svg width="131" height="21" viewBox="0 0 131 21" fill="none" xmlns="http://www.w3.org/2000/svg">
<path d="M0.904551 14.5V6.5H3.75611C4.37851 6.5 4.89413 6.61328 5.30299 6.83984C5.71184 7.06641 6.01783 7.3763 6.22096 7.76953C6.42408 8.16016 6.52564 8.60026 6.52564 9.08984C6.52564 9.58203 6.42278 10.0247 6.21705 10.418C6.01393 10.8086 5.70663 11.1185 5.29518 11.3477C4.88632 11.5742 4.372 11.6875 3.75221 11.6875H1.79127V10.6641H3.64283C4.03606 10.6641 4.35507 10.5964 4.59986 10.4609C4.84465 10.3229 5.02434 10.1354 5.13893 9.89844C5.25351 9.66146 5.3108 9.39193 5.3108 9.08984C5.3108 8.78776 5.25351 8.51953 5.13893 8.28516C5.02434 8.05078 4.84335 7.86719 4.59596 7.73438C4.35117 7.60156 4.02825 7.53516 3.62721 7.53516H2.11158V14.5H0.904551ZM10.0791 14.6211C9.51658 14.6211 9.0257 14.4922 8.60643 14.2344C8.18716 13.9766 7.86163 13.6159 7.62986 13.1523C7.39809 12.6888 7.28221 12.1471 7.28221 11.5273C7.28221 10.9049 7.39809 10.3607 7.62986 9.89453C7.86163 9.42839 8.18716 9.06641 8.60643 8.80859C9.0257 8.55078 9.51658 8.42188 10.0791 8.42188C10.6416 8.42188 11.1325 8.55078 11.5517 8.80859C11.971 9.06641 12.2965 9.42839 12.5283 9.89453C12.7601 10.3607 12.876 10.9049 12.876 11.5273C12.876 12.1471 12.7601 12.6888 12.5283 13.1523C12.2965 13.6159 11.971 13.9766 11.5517 14.2344C11.1325 14.4922 10.6416 14.6211 10.0791 14.6211ZM10.083 13.6406C10.4476 13.6406 10.7497 13.5443 10.9892 13.3516C11.2288 13.1589 11.4059 12.9023 11.5205 12.582C11.6377 12.2617 11.6963 11.9089 11.6963 11.5234C11.6963 11.1406 11.6377 10.7891 11.5205 10.4687C11.4059 10.1458 11.2288 9.88672 10.9892 9.69141C10.7497 9.49609 10.4476 9.39844 10.083 9.39844C9.7158 9.39844 9.41111 9.49609 9.16893 9.69141C8.92934 9.88672 8.75096 10.1458 8.63377 10.4687C8.51919 10.7891 8.46189 11.1406 8.46189 11.5234C8.46189 11.9089 8.51919 12.2617 8.63377 12.582C8.75096 12.9023 8.92934 13.1589 9.16893 13.3516C9.41111 13.5443 9.7158 13.6406 10.083 13.6406ZM15.0778 14.5L13.3122 8.5H14.5192L15.695 12.9062H15.7536L16.9333 8.5H18.1403L19.3122 12.8867H19.3708L20.5388 8.5H21.7458L19.9841 14.5H18.7927L17.5739 10.168H17.4841L16.2653 14.5H15.0778ZM25.0375 14.6211C24.4464 14.6211 23.9373 14.4948 23.5102 14.2422C23.0857 13.987 22.7576 13.6289 22.5258 13.168C22.2966 12.7044 22.1821 12.1615 22.1821 11.5391C22.1821 10.9245 22.2966 10.3828 22.5258 9.91406C22.7576 9.44531 23.0805 9.07943 23.4946 8.81641C23.9112 8.55339 24.3982 8.42188 24.9555 8.42188C25.294 8.42188 25.6222 8.47786 25.9399 8.58984C26.2576 8.70182 26.5427 8.8776 26.7953 9.11719C27.0479 9.35677 27.2472 9.66797 27.393 10.0508C27.5388 10.431 27.6117 10.8932 27.6117 11.4375V11.8516H22.8422V10.9766H26.4672C26.4672 10.6693 26.4047 10.3971 26.2797 10.1602C26.1547 9.92057 25.9789 9.73177 25.7524 9.59375C25.5284 9.45573 25.2654 9.38672 24.9633 9.38672C24.6352 9.38672 24.3487 9.46745 24.1039 9.62891C23.8617 9.78776 23.6742 9.99609 23.5414 10.2539C23.4112 10.5091 23.3461 10.7865 23.3461 11.0859V11.7695C23.3461 12.1706 23.4164 12.5117 23.5571 12.793C23.7003 13.0742 23.8995 13.2891 24.1547 13.4375C24.4099 13.5833 24.7081 13.6562 25.0492 13.6562C25.2706 13.6562 25.4724 13.625 25.6547 13.5625C25.837 13.4974 25.9946 13.401 26.1274 13.2734C26.2602 13.1458 26.3617 12.9883 26.4321 12.8008L27.5375 13C27.449 13.3255 27.2901 13.6107 27.061 13.8555C26.8344 14.0977 26.5492 14.2865 26.2055 14.4219C25.8643 14.5547 25.475 14.6211 25.0375 14.6211ZM28.6876 14.5V8.5H29.8165V9.45312H29.879C29.9884 9.13021 30.1811 8.8763 30.4572 8.69141C30.7358 8.50391 31.0509 8.41016 31.4025 8.41016C31.4754 8.41016 31.5613 8.41276 31.6603 8.41797C31.7619 8.42318 31.8413 8.42969 31.8986 8.4375V9.55469C31.8517 9.54167 31.7684 9.52734 31.6486 9.51172C31.5288 9.49349 31.409 9.48437 31.2892 9.48437C31.0132 9.48437 30.7671 9.54297 30.5509 9.66016C30.3374 9.77474 30.1681 9.9349 30.0431 10.1406C29.9181 10.3437 29.8556 10.5755 29.8556 10.8359V14.5H28.6876ZM35.0604 14.6211C34.4693 14.6211 33.9601 14.4948 33.5331 14.2422C33.1086 13.987 32.7805 13.6289 32.5487 13.168C32.3195 12.7044 32.2049 12.1615 32.2049 11.5391C32.2049 10.9245 32.3195 10.3828 32.5487 9.91406C32.7805 9.44531 33.1034 9.07943 33.5174 8.81641C33.9341 8.55339 34.4211 8.42188 34.9784 8.42188C35.3169 8.42188 35.645 8.47786 35.9628 8.58984C36.2805 8.70182 36.5656 8.8776 36.8182 9.11719C37.0708 9.35677 37.27 9.66797 37.4159 10.0508C37.5617 10.431 37.6346 10.8932 37.6346 11.4375V11.8516H32.8651V10.9766H36.4901C36.4901 10.6693 36.4276 10.3971 36.3026 10.1602C36.1776 9.92057 36.0018 9.73177 35.7753 9.59375C35.5513 9.45573 35.2883 9.38672 34.9862 9.38672C34.6581 9.38672 34.3716 9.46745 34.1268 9.62891C33.8846 9.78776 33.6971 9.99609 33.5643 10.2539C33.4341 10.5091 33.369 10.7865 33.369 11.0859V11.7695C33.369 12.1706 33.4393 12.5117 33.5799 12.793C33.7232 13.0742 33.9224 13.2891 34.1776 13.4375C34.4328 13.5833 34.731 13.6562 35.0721 13.6562C35.2935 13.6562 35.4953 13.625 35.6776 13.5625C35.8599 13.4974 36.0174 13.401 36.1503 13.2734C36.2831 13.1458 36.3846 12.9883 36.4549 12.8008L37.5604 13C37.4719 13.3255 37.313 13.6107 37.0838 13.8555C36.8573 14.0977 36.5721 14.2865 36.2284 14.4219C35.8872 14.5547 35.4979 14.6211 35.0604 14.6211ZM40.9566 14.6172C40.4722 14.6172 40.04 14.4935 39.6597 14.2461C39.2821 13.9961 38.9853 13.6406 38.7691 13.1797C38.5556 12.7161 38.4488 12.1602 38.4488 11.5117C38.4488 10.8633 38.5569 10.3086 38.773 9.84766C38.9918 9.38672 39.2913 9.03385 39.6715 8.78906C40.0517 8.54427 40.4827 8.42188 40.9644 8.42188C41.3368 8.42188 41.6363 8.48438 41.8629 8.60937C42.092 8.73177 42.2691 8.875 42.3941 9.03906C42.5217 9.20312 42.6207 9.34766 42.691 9.47266H42.7613V6.5H43.9293V14.5H42.7887V13.5664H42.691C42.6207 13.694 42.5191 13.8398 42.3863 14.0039C42.2561 14.168 42.0764 14.3112 41.8472 14.4336C41.6181 14.556 41.3212 14.6172 40.9566 14.6172ZM41.2144 13.6211C41.5504 13.6211 41.8342 13.5326 42.066 13.3555C42.3004 13.1758 42.4775 12.9271 42.5972 12.6094C42.7196 12.2917 42.7808 11.9219 42.7808 11.5C42.7808 11.0833 42.7209 10.7187 42.6012 10.4062C42.4814 10.0937 42.3056 9.85026 42.0738 9.67578C41.842 9.5013 41.5556 9.41406 41.2144 9.41406C40.8629 9.41406 40.5699 9.50521 40.3355 9.6875C40.1012 9.86979 39.9241 10.1185 39.8043 10.4336C39.6871 10.7487 39.6285 11.1042 39.6285 11.5C39.6285 11.901 39.6884 12.2617 39.8082 12.582C39.928 12.9023 40.1051 13.1562 40.3394 13.3437C40.5764 13.5286 40.8681 13.6211 41.2144 13.6211ZM48.1612 14.5V6.5H49.3291V9.47266H49.3994C49.4671 9.34766 49.5648 9.20312 49.6924 9.03906C49.82 8.875 49.9971 8.73177 50.2237 8.60937C50.4502 8.48438 50.7497 8.42188 51.1221 8.42188C51.6065 8.42188 52.0388 8.54427 52.419 8.78906C52.7992 9.03385 53.0974 9.38672 53.3135 9.84766C53.5322 10.3086 53.6416 10.8633 53.6416 11.5117C53.6416 12.1602 53.5336 12.7161 53.3174 13.1797C53.1013 13.6406 52.8044 13.9961 52.4268 14.2461C52.0492 14.4935 51.6182 14.6172 51.1338 14.6172C50.7692 14.6172 50.4711 14.556 50.2393 14.4336C50.0101 14.3112 49.8304 14.168 49.7002 14.0039C49.57 13.8398 49.4697 13.694 49.3994 13.5664H49.3018V14.5H48.1612ZM49.3057 11.5C49.3057 11.9219 49.3669 12.2917 49.4893 12.6094C49.6117 12.9271 49.7888 13.1758 50.0205 13.3555C50.2523 13.5326 50.5362 13.6211 50.8721 13.6211C51.2211 13.6211 51.5127 13.5286 51.7471 13.3437C51.9815 13.1562 52.1586 12.9023 52.2783 12.582C52.4007 12.2617 52.4619 11.901 52.4619 11.5C52.4619 11.1042 52.402 10.7487 52.2822 10.4336C52.1651 10.1185 51.988 9.86979 51.751 9.6875C51.5166 9.50521 51.2237 9.41406 50.8721 9.41406C50.5336 9.41406 50.2471 9.5013 50.0127 9.67578C49.7809 9.85026 49.6052 10.0937 49.4854 10.4062C49.3656 10.7187 49.3057 11.0833 49.3057 11.5ZM55.2673 16.75C55.0928 16.75 54.934 16.7357 54.7908 16.707C54.6475 16.681 54.5408 16.6523 54.4705 16.6211L54.7517 15.6641C54.9652 15.7214 55.1553 15.7461 55.322 15.7383C55.4887 15.7305 55.6358 15.668 55.7634 15.5508C55.8936 15.4336 56.0082 15.2422 56.1072 14.9766L56.2517 14.5781L54.0564 8.5H55.3064L56.8259 13.1562H56.8884L58.408 8.5H59.6619L57.1892 15.3008C57.0746 15.6133 56.9288 15.8776 56.7517 16.0938C56.5746 16.3125 56.3637 16.4766 56.1189 16.5859C55.8741 16.6953 55.5902 16.75 55.2673 16.75Z" fill="#595959"/>
<path d="M70.8118 17.0093C69.8148 17.0093 68.4068 16.718 67 15.4527L68.1041 14.2255C70.0762 16.0007 72.1312 15.2996 72.7667 14.7067C72.8116 14.6653 72.8542 14.6238 72.8945 14.5812C70.8176 14.3786 69.2991 12.9073 69.1943 12.8037C67.6033 11.238 67.2429 9.11043 68.3746 7.96031C69.5052 6.81135 71.6361 7.13486 73.2272 8.69713C73.3665 8.83067 74.9173 10.3503 75.2235 12.2787C76.1284 11.6029 76.7029 10.523 76.7029 9.33607C76.7029 8.33907 76.3183 7.41577 75.6207 6.73767C74.8942 6.03079 73.8719 5.64166 72.7414 5.64166V3.99075C74.3036 3.99075 75.7347 4.54566 76.7719 5.55417C77.792 6.54656 78.3538 7.89008 78.3538 9.33607C78.3538 11.5269 77.0056 13.4645 75.037 14.2646C74.8125 14.861 74.4314 15.4125 73.8949 15.9133C73.3688 16.4037 72.3407 16.9482 71.0306 17.0035C70.958 17.0081 70.8867 17.0093 70.8118 17.0093ZM70.1165 8.91586C69.8862 8.91586 69.6882 8.97803 69.5501 9.11963C69.1437 9.53294 69.4004 10.6946 70.3525 11.6305C70.3536 11.6317 70.3548 11.634 70.3571 11.6351C70.3709 11.6478 71.8606 13.0938 73.6232 12.9453C73.6232 12.9441 73.6232 12.943 73.6232 12.9418C73.6313 11.383 72.1001 9.90595 72.084 9.89099C72.0805 9.88753 72.0759 9.88407 72.0736 9.88062C71.5095 9.32456 70.7071 8.91586 70.1165 8.91586Z" fill="#08080D"/>
<path d="M89.346 8.65568C89.2539 8.15488 88.8406 7.37316 87.6836 7.37662C86.8224 7.38007 86.2595 7.93384 86.2618 8.53825C86.2641 9.03905 86.5864 9.43623 87.2553 9.56287L88.5286 9.80234C90.1864 10.1178 91.0775 11.1931 91.0821 12.4779C91.0867 13.8778 89.9228 15.2962 87.8033 15.3031C85.388 15.3123 84.3161 13.7615 84.1699 12.4641L85.8128 12.0208C85.8934 12.92 86.5254 13.727 87.8102 13.7224C88.7612 13.7189 89.2861 13.2412 89.2838 12.5988C89.2815 12.0726 88.8821 11.6628 88.1752 11.5235L86.9019 11.2714C85.449 10.9812 84.5072 10.0464 84.5026 8.67179C84.4969 7.05311 85.944 5.81435 87.6652 5.80744C89.8744 5.79938 90.7275 7.13255 90.9371 8.15948L89.346 8.65568Z" fill="#08080D"/>
<path d="M94.5475 11.6559L94.5601 15.0866L92.7872 15.0935L92.7538 5.98474L96.1581 5.97208C97.9564 5.96517 99.156 7.15557 99.1617 8.80073C99.1675 10.4586 97.9771 11.6444 96.1788 11.6513L94.5475 11.6559ZM95.9555 10.1212C96.8419 10.1178 97.3796 9.60201 97.3773 8.818C97.3738 8.00866 96.8327 7.50902 95.9462 7.51247L94.5463 7.51708L94.5555 10.1247L95.9555 10.1212Z" fill="#08080D"/>
<path d="M103.425 11.5753L102.5 11.5787L102.513 15.0866H100.727L100.694 5.98474L104.253 5.97208C106.026 5.96517 107.161 7.18205 107.167 8.76274C107.171 10.0349 106.43 11.0008 105.236 11.3519L107.202 15.0705L105.223 15.0774L103.425 11.5753ZM103.934 10.0441C104.833 10.0406 105.358 9.52488 105.356 8.78001C105.353 8.00867 104.824 7.51017 103.925 7.51362L102.485 7.51937L102.495 10.0499L103.934 10.0441Z" fill="#08080D"/>
<path d="M118.6 15.0705L114.439 8.62344L114.462 15.0855L112.689 15.0924L112.656 5.98359L114.865 5.97553L118.677 11.9874L118.655 5.96172L120.428 5.9548L120.461 15.0636L118.6 15.0705Z" fill="#08080D"/>
<path d="M110.723 15.0855L108.95 15.0924L108.916 5.98359L110.699 5.97554L110.723 15.0855Z" fill="#08080D"/>
<path d="M129.546 14.9715L129.426 13.9308C129.018 14.549 128.121 15.1684 126.746 15.1742C124.293 15.1834 122.192 13.392 122.18 10.4505C122.17 7.50787 124.36 5.68887 126.827 5.67966C129.217 5.67045 130.545 7.06694 131 8.46573L129.307 9.07589C129.073 8.2677 128.311 7.33173 126.834 7.33748C125.459 7.34209 123.972 8.28612 123.98 10.4447C123.988 12.5009 125.34 13.5624 126.869 13.5566C128.552 13.5509 129.204 12.4169 129.304 11.7745L126.426 11.7848L126.42 10.2433L130.968 10.2272L130.985 14.9681L129.546 14.9715Z" fill="#08080D"/>
</svg>
